<?xml version="1.0" encoding="utf-8"?>
<!-- Generator: Adobe Illustrator 21.0.0, SVG Export Plug-In . SVG Version: 6.00 Build 0)  -->
<svg  version="1.1" id="Layer_1" xmlns="http://www.w3.org/2000/svg" xmlns:xlink="http://www.w3.org/1999/xlink" x="0px" y="0px"
	 viewBox="0 0 512 512" style="enable-background:new 0 0 512 512;" xml:space="preserve">
<g>
	<path d="M510.5,468.2l-109.7-256c-2.9-6.7-9.5-11.1-16.8-11.1s-13.9,4.3-16.8,11.1l-109.7,256c-4,9.3,0.3,20,9.6,24
		c9.3,4,20-0.3,24-9.6l26.6-62h132.7l26.6,62c4,9.3,14.7,13.6,24,9.6S514.5,477.5,510.5,468.2z M333.4,384L384,265.8L434.6,384
		H333.4z" fill="#bdbcbc"/>
	<path d="M270.4,358.5c6.2-7.9,4.8-19.4-3.2-25.6c-0.3-0.2-10-7.8-24.6-21.8c-8.4-8-18.4-18.2-29.2-30.3
		c13.7-18.1,25.6-37.1,35.9-55.5c18.5-33.4,31.7-65.4,40.3-89.3c3.8-10.6,6.8-19.6,8.8-26.3h49c10.1,0,18.3-8.2,18.3-18.3
		c0-10.1-8.2-18.3-18.3-18.3H201.2V36.6c0-10.1-8.2-18.3-18.3-18.3c-10.1,0-18.3,8.2-18.3,18.3v36.5H18.3C8.2,73.1,0,81.3,0,91.4
		c0,10.1,8.2,18.3,18.3,18.3H181c0.6,0.1,1.3,0.1,1.9,0.1s1.3,0,1.9-0.1h75.4c-3.6,10.8-8.7,24.8-15.2,40.6
		c-7.4,17.8-16.7,37.9-28.1,58.3c-8.2,14.6-17.4,29.3-27.6,43.4c-0.4-0.5-0.8-1-1.1-1.5c-20.7-26.8-36.3-50.6-46.8-67.6
		c-5.2-8.5-9.1-15.3-11.7-19.9c-1.3-2.3-2.3-4.1-2.9-5.2c-0.3-0.6-0.5-1-0.7-1.3c-0.1-0.1-0.1-0.2-0.2-0.3v-0.1
		c-4.6-9-15.6-12.5-24.6-7.9c-9,4.6-12.5,15.6-7.9,24.6c0.4,0.7,22.6,43.9,65.8,100c2.2,2.9,4.5,5.7,6.7,8.5
		c-28.6,33-57.2,58.4-79.3,76c-12.5,9.9-22.9,17.3-30.1,22.2c-3.6,2.4-6.4,4.3-8.3,5.4c-0.9,0.6-1.6,1-2.1,1.3
		c-0.2,0.1-0.4,0.2-0.5,0.3l-0.1,0.1c-8.7,5.1-11.6,16.3-6.5,25c5.1,8.7,16.3,11.6,25,6.5c0.6-0.3,18.7-11.1,45.2-32.1
		c22.6-18,51.5-43.5,80.6-76.6c10.4,11.4,20.1,21.1,28.3,28.9c15.8,15.1,26.3,23.2,26.7,23.5C252.8,368,264.3,366.5,270.4,358.5z" fill="#bdbcbc"/>
</g>
</svg>
